<svg width="20" height="23" viewBox="0 0 20 23" fill="none" xmlns="http://www.w3.org/2000/svg">
<path d="M6.08334 21H9.07501V21C9.07501 22.1046 8.4053 23 7.57918 23V23C6.75305 23 6.08334 22.1046 6.08334 21V21Z" fill="white"/>
<path fill-rule="evenodd" clip-rule="evenodd" d="M7.57914 4C7.0629 4 6.64442 4.42284 6.64442 4.94444V5.88889C6.64442 5.91509 6.64547 5.94105 6.64754 5.96672C3.99356 6.41506 1.97086 8.74664 1.97086 11.5556V13.4042C1.97086 13.8109 1.82512 14.204 1.56059 14.5106L0.958213 15.2089C-0.992379 17.4699 0.596956 21 3.56553 21H11.5928C14.5614 21 16.1507 17.4699 14.2001 15.2089L13.5978 14.5106C13.3332 14.204 13.1875 13.8109 13.1875 13.4042V11.5556C13.1875 8.74661 11.1648 6.41501 8.51073 5.9667C8.5128 5.94104 8.51386 5.91509 8.51386 5.88889V4.94444C8.51386 4.42284 8.09537 4 7.57914 4ZM3.8403 11.5556C3.8403 9.46915 5.51425 7.77778 7.57918 7.77778C9.6441 7.77778 11.3181 9.46915 11.3181 11.5556V13.4042C11.3181 14.2673 11.6273 15.1012 12.1885 15.7518L12.7909 16.45C13.6872 17.489 12.9569 19.1111 11.5928 19.1111H3.56553C2.20143 19.1111 1.47112 17.489 2.36744 16.45L2.96981 15.7518C3.53108 15.1012 3.8403 14.2673 3.8403 13.4042V11.5556Z" fill="white"/>
<rect x="10.1842" y="1.18421" width="8.63158" height="8.63158" rx="4.31579" fill="#2890CF"/>
<rect x="10.1842" y="1.18421" width="8.63158" height="8.63158" rx="4.31579" stroke="white" stroke-width="1.63158"/>
<path d="M14.4568 7.04C14.2621 7.04 14.0755 7.012 13.8968 6.956C13.7181 6.89733 13.5715 6.81733 13.4568 6.716L13.6248 6.328C13.7501 6.424 13.8795 6.49467 14.0128 6.54C14.1488 6.58533 14.2915 6.608 14.4408 6.608C14.6221 6.608 14.7595 6.572 14.8528 6.5C14.9461 6.428 14.9928 6.32267 14.9928 6.184C14.9928 6.05067 14.9461 5.95067 14.8528 5.884C14.7621 5.81467 14.6288 5.78 14.4528 5.78H13.9968V5.368H14.4088C14.5608 5.368 14.6821 5.33067 14.7728 5.256C14.8635 5.18133 14.9088 5.07867 14.9088 4.948C14.9088 4.82533 14.8661 4.732 14.7808 4.668C14.6981 4.604 14.5781 4.572 14.4208 4.572C14.1381 4.572 13.8888 4.668 13.6728 4.86L13.5048 4.476C13.6195 4.36933 13.7608 4.28667 13.9288 4.228C14.0995 4.16933 14.2781 4.14 14.4648 4.14C14.7581 4.14 14.9875 4.20667 15.1528 4.34C15.3208 4.47067 15.4048 4.65333 15.4048 4.888C15.4048 5.056 15.3568 5.20133 15.2608 5.324C15.1675 5.444 15.0381 5.524 14.8728 5.564V5.516C15.0675 5.548 15.2181 5.628 15.3248 5.756C15.4341 5.88133 15.4888 6.03867 15.4888 6.228C15.4888 6.47867 15.3968 6.67733 15.2128 6.824C15.0288 6.968 14.7768 7.04 14.4568 7.04Z" fill="white"/>
</svg>
