<svg width="10" height="16" viewBox="0 0 10 16" fill="none" xmlns="http://www.w3.org/2000/svg">
<path d="M6.67809 7.49369L6.67806 7.49367L1.24305 2.3025C0.918602 1.9926 0.90603 1.47783 1.21507 1.15248C1.52387 0.827357 2.03765 0.814355 2.36264 1.12438L2.36268 1.12442L8.56965 7.05331L8.56968 7.05329L8.57144 7.05506C8.85865 7.34345 9.01751 7.72697 9.01751 8.13482C9.01751 8.54292 8.85821 8.92667 8.5589 9.22644L8.55892 9.22646L8.5572 9.2281L2.36236 15.1448C2.20537 15.2949 2.00387 15.3695 1.80269 15.3695C1.58858 15.3695 1.37417 15.2848 1.21471 15.1168C0.905673 14.7914 0.918249 14.277 1.24269 13.9671L1.24285 13.967L6.6994 8.777L6.7 8.77642L7.05671 8.42538C7.21766 8.26699 7.21568 8.00686 7.05234 7.85094L6.67809 7.49369Z" fill="#2890CF" stroke="#2890CF" stroke-width="0.2"/>
</svg>
