<svg width="28" height="27" viewBox="0 0 28 27" fill="none" xmlns="http://www.w3.org/2000/svg">
<path d="M7.15347 16.875C7.15347 16.2537 7.65575 15.75 8.27535 15.75H12.7628C13.3824 15.75 13.8847 16.2537 13.8847 16.875C13.8847 17.4963 13.3824 18 12.7628 18H8.27535C7.65575 18 7.15347 17.4963 7.15347 16.875Z" fill="#B4B4B8"/>
<path d="M2.66597 10.125H25.1035V12.375H2.66597V10.125Z" fill="#B4B4B8"/>
<path fill-rule="evenodd" clip-rule="evenodd" d="M9.12651 4.5H18.6429C19.546 4.49999 20.2913 4.49997 20.8985 4.54972C21.5291 4.60138 22.1088 4.71227 22.6533 4.99047C23.4976 5.4219 24.1841 6.11031 24.6144 6.95704C24.8918 7.50305 25.0024 8.08434 25.0539 8.7167C25.1035 9.32553 25.1035 10.0729 25.1035 10.9785V16.0215C25.1035 16.9271 25.1035 17.6745 25.0539 18.2833C25.0024 18.9157 24.8918 19.497 24.6144 20.043C24.1841 20.8897 23.4976 21.5781 22.6533 22.0095C22.1088 22.2877 21.5291 22.3986 20.8985 22.4503C20.2913 22.5 19.546 22.5 18.6429 22.5H9.12654C8.22345 22.5 7.47811 22.5 6.87095 22.4503C6.24035 22.3986 5.66067 22.2877 5.11619 22.0095C4.27181 21.5781 3.58531 20.8897 3.15508 20.043C2.87765 19.497 2.76707 18.9157 2.71555 18.2833C2.66594 17.6745 2.66596 16.9271 2.66597 16.0215V10.9785C2.66596 10.0729 2.66594 9.32554 2.71555 8.7167C2.76707 8.08434 2.87765 7.50305 3.15508 6.95704C3.58531 6.11031 4.27181 5.4219 5.11619 4.99047C5.66067 4.71227 6.24035 4.60138 6.87095 4.54972C7.47811 4.49997 8.22344 4.49999 9.12651 4.5ZM7.05367 6.79225C6.56182 6.83254 6.31029 6.90559 6.13483 6.99524C5.71264 7.21095 5.36939 7.55516 5.15427 7.97852C5.06487 8.15447 4.99203 8.4067 4.95185 8.89992C4.91059 9.40627 4.90972 10.0613 4.90972 11.025V15.975C4.90972 16.9387 4.91059 17.5937 4.95185 18.1001C4.99203 18.5933 5.06487 18.8455 5.15427 19.0215C5.36939 19.4448 5.71264 19.789 6.13483 20.0048C6.31029 20.0944 6.56182 20.1675 7.05367 20.2078C7.55861 20.2491 8.21187 20.25 9.17285 20.25H18.5966C19.5576 20.25 20.2108 20.2491 20.7158 20.2078C21.2076 20.1675 21.4592 20.0944 21.6346 20.0048C22.0568 19.789 22.4 19.4448 22.6152 19.0215C22.7046 18.8455 22.7774 18.5933 22.8176 18.1001C22.8588 17.5937 22.8597 16.9387 22.8597 15.975V11.025C22.8597 10.0613 22.8588 9.40627 22.8176 8.89992C22.7774 8.4067 22.7046 8.15447 22.6152 7.97852C22.4 7.55516 22.0568 7.21095 21.6346 6.99524C21.4592 6.90559 21.2076 6.83254 20.7158 6.79225C20.2108 6.75088 19.5576 6.75 18.5966 6.75H9.17285C8.21187 6.75 7.55861 6.75088 7.05367 6.79225Z" fill="#B4B4B8"/>
</svg>
