<svg width="27" height="26" viewBox="0 0 27 26" fill="none" xmlns="http://www.w3.org/2000/svg">
<g filter="url(#filter0_d_0_205)">
<path d="M19.7937 5.82994C19.6428 5.30433 19.3143 4.84047 18.8589 4.5098C18.4035 4.17913 17.8463 4 17.2733 4H12.6848C12.2305 4.00002 11.7841 4.11267 11.3896 4.32682C10.9951 4.54097 10.6661 4.84923 10.4352 5.22116L8.05166 9.05626L5.97876 9.54943C5.41352 9.68379 4.91173 9.99394 4.55318 10.4306C4.19463 10.8672 3.99988 11.4053 3.99991 11.9592V13.4839C3.99973 13.9564 4.14131 14.4191 4.40801 14.8178C4.67472 15.2165 5.0555 15.5346 5.50566 15.7347C5.65984 16.3591 6.0248 16.9184 6.54477 17.327C7.06474 17.7356 7.71112 17.9711 8.38514 17.9975C9.05916 18.0239 9.72374 17.8398 10.2773 17.4733C10.8309 17.1067 11.243 16.578 11.4508 15.9678H16.0241C16.2417 16.6033 16.6808 17.1493 17.2688 17.5156C17.8569 17.8818 18.5588 18.0465 19.2585 17.9822C19.9583 17.918 20.6141 17.6288 21.1176 17.1624C21.6212 16.696 21.9423 16.0802 22.0281 15.4168C22.3318 15.1842 22.5767 14.8898 22.7449 14.5553C22.9131 14.2208 23.0002 13.8547 22.9999 13.4839V11.4516C22.9998 10.8442 22.7656 10.2579 22.3417 9.80354C21.9177 9.34917 21.3333 9.05826 20.699 8.98581L19.7937 5.82994ZM11.5638 14.6129C11.4586 13.9673 11.1299 13.3735 10.6297 12.9255C10.1295 12.4775 9.4864 12.201 8.80225 12.1397C8.11811 12.0784 7.43201 12.2359 6.85262 12.5872C6.27323 12.9385 5.83366 13.4635 5.60351 14.0791C5.48654 13.9005 5.42465 13.6943 5.42491 13.4839V11.9592C5.42491 11.4408 5.79541 10.9892 6.32456 10.8636L8.60171 10.3226H20.3874C21.0429 10.3226 21.5749 10.8284 21.5749 11.4516V13.4992C21.2398 12.9932 20.7502 12.5964 20.1715 12.3622C19.5928 12.1279 18.9526 12.0673 18.3367 12.1884C17.7208 12.3095 17.1584 12.6066 16.7249 13.0399C16.2914 13.4732 16.0075 14.022 15.911 14.6129H11.5638ZM14.4499 8.96775H9.76261L11.6626 5.90942C11.7676 5.7405 11.9171 5.60051 12.0964 5.50326C12.2756 5.40601 12.4784 5.35486 12.6848 5.35484H14.4499V8.96775ZM15.8749 5.35484H17.2733C17.5338 5.35483 17.7871 5.43625 17.9941 5.58657C18.2011 5.7369 18.3504 5.94777 18.419 6.18671L19.217 8.96775H15.8749V5.35484ZM18.9624 13.4839C19.4033 13.4839 19.8262 13.6504 20.138 13.9468C20.4498 14.2433 20.6249 14.6453 20.6249 15.0645C20.6249 15.4837 20.4498 15.8858 20.138 16.1822C19.8262 16.4786 19.4033 16.6452 18.9624 16.6452C18.5215 16.6452 18.0986 16.4786 17.7868 16.1822C17.4751 15.8858 17.2999 15.4837 17.2999 15.0645C17.2999 14.6453 17.4751 14.2433 17.7868 13.9468C18.0986 13.6504 18.5215 13.4839 18.9624 13.4839ZM10.1749 15.0645C10.1749 15.4837 9.99975 15.8858 9.68797 16.1822C9.37619 16.4786 8.95333 16.6452 8.51241 16.6452C8.07149 16.6452 7.64862 16.4786 7.33684 16.1822C7.02506 15.8858 6.84991 15.4837 6.84991 15.0645C6.84991 14.6453 7.02506 14.2433 7.33684 13.9468C7.64862 13.6504 8.07149 13.4839 8.51241 13.4839C8.95333 13.4839 9.37619 13.6504 9.68797 13.9468C9.99975 14.2433 10.1749 14.6453 10.1749 15.0645Z" fill="#3C6AB2"/>
</g>
<defs>
<filter id="filter0_d_0_205" x="-1.58456" y="0.366714" width="30.8308" height="30.8309" filterUnits="userSpaceOnUse" color-interpolation-filters="sRGB">
<feFlood flood-opacity="0" result="BackgroundImageFix"/>
<feColorMatrix in="SourceAlpha" type="matrix" values="0 0 0 0 0 0 0 0 0 0 0 0 0 0 0 0 0 0 127 0" result="hardAlpha"/>
<feOffset dy="4"/>
<feGaussianBlur stdDeviation="2"/>
<feComposite in2="hardAlpha" operator="out"/>
<feColorMatrix type="matrix" values="0 0 0 0 0 0 0 0 0 0 0 0 0 0 0 0 0 0 0.25 0"/>
<feBlend mode="normal" in2="BackgroundImageFix" result="effect1_dropShadow_0_205"/>
<feBlend mode="normal" in="SourceGraphic" in2="effect1_dropShadow_0_205" result="shape"/>
</filter>
</defs>
</svg>
