<svg width="22" height="21" viewBox="0 0 22 21" fill="none" xmlns="http://www.w3.org/2000/svg">
<path d="M10.6637 2.62357C5.86632 2.62357 1.93801 6.12444 1.93801 10.4986C1.93801 11.9187 2.36033 13.2942 3.13779 14.4903C3.2617 14.6819 3.36991 15.1151 3.30097 15.5298C3.23117 15.9586 3.00778 16.3777 2.56538 16.6236C2.42752 16.7006 1.94237 16.9141 1.93801 17.4986C1.93365 18.0831 2.43625 18.3709 2.81058 18.3736C3.69624 18.3806 9.13934 18.3736 10.6637 18.3736C15.4611 18.3736 19.3894 14.8727 19.3894 10.4986C19.3894 6.12444 15.4611 2.62357 10.6637 2.62357ZM10.6637 4.37356C14.5405 4.37356 17.6443 7.14031 17.6443 10.4986C17.6443 13.8568 14.5405 16.6236 10.6637 16.6236C9.50494 16.6236 6.84535 16.6236 4.77386 16.6236C5.17437 15.7897 5.14471 14.4658 4.58278 13.5339C4.0191 12.5977 3.68315 11.5739 3.68315 10.4986C3.68315 7.14031 6.78689 4.37356 10.6637 4.37356Z" fill="white"/>
</svg>
