<svg width="18" height="18" viewBox="0 0 18 18" fill="none" xmlns="http://www.w3.org/2000/svg">
<path fill-rule="evenodd" clip-rule="evenodd" d="M9.00014 4.5C5.35872 4.5 3.66751 7.32944 3.07278 8.66507C2.97692 8.88034 2.97692 9.11966 3.07278 9.33493C3.66751 10.6706 5.35872 13.5 9.00014 13.5C12.6416 13.5 14.3327 10.6704 14.9273 9.33487C15.0231 9.11963 15.0231 8.88037 14.9273 8.66513C14.3327 7.32955 12.6416 4.5 9.00014 4.5ZM1.70249 8.0549C2.35448 6.59067 4.41857 3 9.00014 3C13.5818 3 15.6457 6.59086 16.2976 8.05504C16.5663 8.65863 16.5663 9.34137 16.2976 9.94496C15.6457 11.4091 13.5818 15 9.00014 15C4.41857 15 2.35448 11.4093 1.70249 9.9451C1.43368 9.34143 1.43368 8.65857 1.70249 8.0549Z" fill="#089EE3"/>
<path fill-rule="evenodd" clip-rule="evenodd" d="M9 6C7.34315 6 6 7.34315 6 9C6 10.6569 7.34315 12 9 12C10.6569 12 12 10.6569 12 9C12 7.34315 10.6569 6 9 6ZM8.93645 7.50132C8.95752 7.50044 8.97871 7.5 9 7.5C9.82843 7.5 10.5 8.17157 10.5 9C10.5 9.82843 9.82843 10.5 9 10.5C8.17157 10.5 7.5 9.82843 7.5 9C7.5 8.97871 7.50044 8.95752 7.50132 8.93645C7.61824 8.97761 7.74401 9 7.875 9C8.49632 9 9 8.49632 9 7.875C9 7.74401 8.97761 7.61824 8.93645 7.50132Z" fill="#089EE3"/>
</svg>
