<svg width="27" height="27" viewBox="0 0 27 27" fill="none" xmlns="http://www.w3.org/2000/svg">
<path fill-rule="evenodd" clip-rule="evenodd" d="M16.5275 2.37441C16.007 2.24944 15.4672 2.24969 14.7529 2.25003L10.9785 2.25007C10.0729 2.25006 9.32554 2.25004 8.7167 2.29979C8.08434 2.35145 7.50305 2.46234 6.95704 2.74054C6.11031 3.17197 5.4219 3.86038 4.99047 4.70711C4.71227 5.25312 4.60139 5.83441 4.54972 6.46677C4.49998 7.07561 4.49999 7.82301 4.5 8.72859V18.2715C4.49999 19.1771 4.49998 19.9245 4.54972 20.5334C4.60139 21.1657 4.71227 21.747 4.99047 22.293C5.4219 23.1398 6.11031 23.8282 6.95704 24.2596C7.50305 24.5378 8.08434 24.6487 8.7167 24.7004C9.32554 24.7501 10.0729 24.7501 10.9785 24.7501H16.0215C16.9271 24.7501 17.6745 24.7501 18.2833 24.7004C18.9157 24.6487 19.497 24.5378 20.043 24.2596C20.8897 23.8282 21.5781 23.1398 22.0095 22.293C22.2877 21.747 22.3986 21.1657 22.4503 20.5334C22.5 19.9245 22.5 19.1771 22.5 18.2715L22.5 9.99721C22.5004 9.28285 22.5006 8.74306 22.3757 8.22254C22.2654 7.76337 22.0836 7.32442 21.8369 6.9218C21.5572 6.46536 21.1753 6.08387 20.6699 5.57898L19.1711 4.08013C18.6662 3.57475 18.2847 3.19289 17.8283 2.91319C17.4256 2.66646 16.9867 2.48464 16.5275 2.37441ZM14.625 4.50007H11.025C10.0613 4.50007 9.40627 4.50095 8.89992 4.54232C8.4067 4.58261 8.15447 4.65566 7.97852 4.74531C7.55516 4.96102 7.21095 5.30523 6.99524 5.72859C6.90559 5.90454 6.83254 6.15677 6.79225 6.64999C6.75088 7.15634 6.75 7.81142 6.75 8.77507V18.2251C6.75 19.1887 6.75088 19.8438 6.79225 20.3502C6.83254 20.8434 6.90559 21.0956 6.99524 21.2716C7.21095 21.6949 7.55516 22.0391 7.97852 22.2548C8.15447 22.3445 8.4067 22.4175 8.89992 22.4578C9.40627 22.4992 10.0613 22.5001 11.025 22.5001H15.975C16.9387 22.5001 17.5937 22.4992 18.1001 22.4578C18.5933 22.4175 18.8455 22.3445 19.0215 22.2548C19.4448 22.0391 19.7891 21.6949 20.0048 21.2716C20.0944 21.0956 20.1675 20.8434 20.2078 20.3502C20.2491 19.8438 20.25 19.1887 20.25 18.2251V10.1251H18C16.136 10.1251 14.625 8.61403 14.625 6.75007V4.50007ZM19.755 7.87507C19.6198 7.7152 19.4039 7.49493 18.9979 7.08894L17.6611 5.75219C17.2551 5.3462 17.0349 5.13029 16.875 4.9951V6.75007C16.875 7.37139 17.3787 7.87507 18 7.87507H19.755Z" fill="#B4B4B8"/>
<path d="M10.125 13.5C9.50368 13.5 9 14.0037 9 14.625C9 15.2463 9.50368 15.75 10.125 15.75H16.875C17.4963 15.75 18 15.2463 18 14.625C18 14.0037 17.4963 13.5 16.875 13.5H10.125Z" fill="#B4B4B8"/>
<path d="M10.125 18C9.50368 18 9 18.5037 9 19.125C9 19.7463 9.50368 20.25 10.125 20.25H13.5C14.1213 20.25 14.625 19.7463 14.625 19.125C14.625 18.5037 14.1213 18 13.5 18H10.125Z" fill="#B4B4B8"/>
</svg>
