<svg width="18" height="18" viewBox="0 0 18 18" fill="none" xmlns="http://www.w3.org/2000/svg">
<path fill-rule="evenodd" clip-rule="evenodd" d="M12.774 2.25H12.726C12.397 2.24999 12.1131 2.24998 11.8782 2.26601C11.6308 2.28289 11.3834 2.32002 11.139 2.42127C10.5877 2.64963 10.1496 3.08765 9.92127 3.63896C9.82002 3.88341 9.78289 4.13084 9.76601 4.37821C9.74998 4.61315 9.74999 4.89701 9.75 5.22598V5.27399C9.74999 5.60296 9.74998 5.88685 9.76601 6.12179C9.78289 6.36916 9.82002 6.61659 9.92127 6.86104C10.1496 7.41235 10.5877 7.85037 11.139 8.07873C11.3834 8.17998 11.6308 8.21711 11.8782 8.23399C12.1131 8.25002 12.397 8.25001 12.726 8.25H12.774C13.103 8.25001 13.3869 8.25002 13.6218 8.23399C13.8692 8.21711 14.1166 8.17998 14.361 8.07873C14.9124 7.85037 15.3504 7.41235 15.5787 6.86104C15.68 6.61659 15.7171 6.36916 15.734 6.12179C15.75 5.88685 15.75 5.60298 15.75 5.27399V5.22601C15.75 4.89702 15.75 4.61316 15.734 4.37821C15.7171 4.13084 15.68 3.88341 15.5787 3.63896C15.3504 3.08765 14.9124 2.64963 14.361 2.42127C14.1166 2.32002 13.8692 2.28289 13.6218 2.26601C13.3869 2.24998 13.103 2.24999 12.774 2.25ZM11.713 3.80709C11.7442 3.79416 11.8093 3.7742 11.9803 3.76253C12.1581 3.75041 12.3903 3.75 12.75 3.75C13.1097 3.75 13.3419 3.75041 13.5197 3.76253C13.6907 3.7742 13.7558 3.79416 13.787 3.80709C13.9708 3.88321 14.1168 4.02922 14.1929 4.21299C14.2058 4.2442 14.2258 4.30932 14.2375 4.48032C14.2496 4.65806 14.25 4.89028 14.25 5.25C14.25 5.60972 14.2496 5.84195 14.2375 6.01968C14.2258 6.19068 14.2058 6.2558 14.1929 6.28701C14.1168 6.47079 13.9708 6.61679 13.787 6.69291C13.7558 6.70584 13.6907 6.7258 13.5197 6.73747C13.3419 6.7496 13.1097 6.75 12.75 6.75C12.3903 6.75 12.1581 6.7496 11.9803 6.73747C11.8093 6.7258 11.7442 6.70584 11.713 6.69291C11.5292 6.61679 11.3832 6.47079 11.3071 6.28701C11.2942 6.2558 11.2742 6.19068 11.2625 6.01968C11.2504 5.84195 11.25 5.60972 11.25 5.25C11.25 4.89028 11.2504 4.65806 11.2625 4.48032C11.2742 4.30932 11.2942 4.2442 11.3071 4.21299C11.3832 4.02922 11.5292 3.88321 11.713 3.80709Z" fill="#2890CF"/>
<path fill-rule="evenodd" clip-rule="evenodd" d="M5.22601 9.75H5.27399C5.60296 9.74999 5.88685 9.74998 6.12179 9.76601C6.36916 9.78289 6.61659 9.82002 6.86104 9.92127C7.41235 10.1496 7.85037 10.5877 8.07873 11.139C8.17998 11.3834 8.21711 11.6308 8.23399 11.8782C8.25002 12.1131 8.25001 12.397 8.25 12.726V12.774C8.25001 13.103 8.25002 13.3869 8.23399 13.6218C8.21711 13.8692 8.17998 14.1166 8.07873 14.361C7.85037 14.9124 7.41235 15.3504 6.86104 15.5787C6.61659 15.68 6.36916 15.7171 6.12179 15.734C5.88685 15.75 5.60298 15.75 5.27399 15.75H5.22601C4.89702 15.75 4.61316 15.75 4.37821 15.734C4.13084 15.7171 3.88341 15.68 3.63896 15.5787C3.08765 15.3504 2.64963 14.9124 2.42127 14.361C2.32002 14.1166 2.28289 13.8692 2.26601 13.6218C2.24998 13.3869 2.24999 13.103 2.25 12.774V12.726C2.24999 12.397 2.24998 12.1131 2.26601 11.8782C2.28289 11.6308 2.32002 11.3834 2.42127 11.139C2.64963 10.5877 3.08765 10.1496 3.63896 9.92127C3.88341 9.82002 4.13084 9.78289 4.37821 9.76601C4.61315 9.74998 4.89704 9.74999 5.22601 9.75ZM4.48032 11.2625C4.30932 11.2742 4.2442 11.2942 4.21299 11.3071C4.02922 11.3832 3.88321 11.5292 3.80709 11.713C3.79416 11.7442 3.7742 11.8093 3.76253 11.9803C3.75041 12.1581 3.75 12.3903 3.75 12.75C3.75 13.1097 3.75041 13.3419 3.76253 13.5197C3.7742 13.6907 3.79416 13.7558 3.80709 13.787C3.88321 13.9708 4.02922 14.1168 4.21299 14.1929C4.2442 14.2058 4.30932 14.2258 4.48032 14.2375C4.65806 14.2496 4.89028 14.25 5.25 14.25C5.60972 14.25 5.84195 14.2496 6.01968 14.2375C6.19068 14.2258 6.2558 14.2058 6.28701 14.1929C6.47079 14.1168 6.61679 13.9708 6.69291 13.787C6.70584 13.7558 6.7258 13.6907 6.73747 13.5197C6.7496 13.3419 6.75 13.1097 6.75 12.75C6.75 12.3903 6.7496 12.1581 6.73747 11.9803C6.7258 11.8093 6.70584 11.7442 6.69291 11.713C6.61679 11.5292 6.47079 11.3832 6.28701 11.3071C6.2558 11.2942 6.19068 11.2742 6.01968 11.2625C5.84195 11.2504 5.60972 11.25 5.25 11.25C4.89028 11.25 4.65806 11.2504 4.48032 11.2625Z" fill="#2890CF"/>
<path fill-rule="evenodd" clip-rule="evenodd" d="M12.726 9.75H12.774C13.103 9.74999 13.3869 9.74998 13.6218 9.76601C13.8692 9.78289 14.1166 9.82002 14.361 9.92127C14.9124 10.1496 15.3504 10.5877 15.5787 11.139C15.68 11.3834 15.7171 11.6308 15.734 11.8782C15.75 12.1132 15.75 12.397 15.75 12.726V12.774C15.75 13.103 15.75 13.3868 15.734 13.6218C15.7171 13.8692 15.68 14.1166 15.5787 14.361C15.3504 14.9124 14.9124 15.3504 14.361 15.5787C14.1166 15.68 13.8692 15.7171 13.6218 15.734C13.3868 15.75 13.103 15.75 12.774 15.75H12.726C12.397 15.75 12.1132 15.75 11.8782 15.734C11.6308 15.7171 11.3834 15.68 11.139 15.5787C10.5877 15.3504 10.1496 14.9124 9.92127 14.361C9.82002 14.1166 9.78289 13.8692 9.76601 13.6218C9.74998 13.3869 9.74999 13.103 9.75 12.774V12.726C9.74999 12.397 9.74998 12.1132 9.76601 11.8782C9.78289 11.6308 9.82002 11.3834 9.92127 11.139C10.1496 10.5877 10.5877 10.1496 11.139 9.92127C11.3834 9.82002 11.6308 9.78289 11.8782 9.76601C12.1132 9.74998 12.397 9.74999 12.726 9.75ZM11.9803 11.2625C11.8093 11.2742 11.7442 11.2942 11.713 11.3071C11.5292 11.3832 11.3832 11.5292 11.3071 11.713C11.2942 11.7442 11.2742 11.8093 11.2625 11.9803C11.2504 12.1581 11.25 12.3903 11.25 12.75C11.25 13.1097 11.2504 13.3419 11.2625 13.5197C11.2742 13.6907 11.2942 13.7558 11.3071 13.787C11.3832 13.9708 11.5292 14.1168 11.713 14.1929C11.7442 14.2058 11.8093 14.2258 11.9803 14.2375C12.1581 14.2496 12.3903 14.25 12.75 14.25C13.1097 14.25 13.3419 14.2496 13.5197 14.2375C13.6907 14.2258 13.7558 14.2058 13.787 14.1929C13.9708 14.1168 14.1168 13.9708 14.1929 13.787C14.2058 13.7558 14.2258 13.6907 14.2375 13.5197C14.2496 13.3419 14.25 13.1097 14.25 12.75C14.25 12.3903 14.2496 12.1581 14.2375 11.9803C14.2258 11.8093 14.2058 11.7442 14.1929 11.713C14.1168 11.5292 13.9708 11.3832 13.787 11.3071C13.7558 11.2942 13.6907 11.2742 13.5197 11.2625C13.3419 11.2504 13.1097 11.25 12.75 11.25C12.3903 11.25 12.1581 11.2504 11.9803 11.2625Z" fill="#2890CF"/>
<path fill-rule="evenodd" clip-rule="evenodd" d="M5.22601 2.25H5.27399C5.60298 2.24999 5.88684 2.24998 6.12179 2.26601C6.36916 2.28289 6.61659 2.32002 6.86104 2.42127C7.41235 2.64963 7.85037 3.08765 8.07873 3.63896C8.17998 3.88341 8.21711 4.13084 8.23399 4.37821C8.25002 4.61316 8.25001 4.89702 8.25 5.22601V5.27399C8.25001 5.60298 8.25002 5.88685 8.23399 6.12179C8.21711 6.36916 8.17998 6.61659 8.07873 6.86104C7.85037 7.41235 7.41235 7.85037 6.86104 8.07873C6.61659 8.17998 6.36916 8.21711 6.12179 8.23399C5.88685 8.25002 5.60298 8.25001 5.27399 8.25H5.22601C4.89702 8.25001 4.61316 8.25002 4.37821 8.23399C4.13084 8.21711 3.88341 8.17998 3.63896 8.07873C3.08765 7.85037 2.64963 7.41235 2.42127 6.86104C2.32002 6.61659 2.28289 6.36916 2.26601 6.12179C2.24998 5.88684 2.24999 5.60298 2.25 5.27399V5.22601C2.24999 4.89703 2.24998 4.61316 2.26601 4.37821C2.28289 4.13084 2.32002 3.88341 2.42127 3.63896C2.64963 3.08765 3.08765 2.64963 3.63896 2.42127C3.88341 2.32002 4.13084 2.28289 4.37821 2.26601C4.61316 2.24998 4.89703 2.24999 5.22601 2.25ZM4.48032 3.76253C4.30932 3.7742 4.2442 3.79416 4.21299 3.80709C4.02922 3.88321 3.88321 4.02922 3.80709 4.21299C3.79416 4.2442 3.7742 4.30932 3.76253 4.48032C3.75041 4.65806 3.75 4.89028 3.75 5.25C3.75 5.60972 3.75041 5.84195 3.76253 6.01968C3.7742 6.19068 3.79416 6.2558 3.80709 6.28701C3.88321 6.47078 4.02922 6.61679 4.21299 6.69291C4.2442 6.70584 4.30932 6.7258 4.48032 6.73747C4.65806 6.74959 4.89028 6.75 5.25 6.75C5.60972 6.75 5.84195 6.74959 6.01968 6.73747C6.19068 6.7258 6.2558 6.70584 6.28701 6.69291C6.47078 6.61679 6.61679 6.47078 6.69291 6.28701C6.70584 6.2558 6.7258 6.19068 6.73747 6.01968C6.74959 5.84195 6.75 5.60972 6.75 5.25C6.75 4.89028 6.74959 4.65806 6.73747 4.48032C6.7258 4.30932 6.70584 4.2442 6.69291 4.21299C6.61679 4.02922 6.47078 3.88321 6.28701 3.80709C6.2558 3.79416 6.19068 3.7742 6.01968 3.76253C5.84195 3.75041 5.60972 3.75 5.25 3.75C4.89028 3.75 4.65806 3.75041 4.48032 3.76253Z" fill="#2890CF"/>
</svg>
