<svg width="33" height="33" viewBox="0 0 33 33" fill="none" xmlns="http://www.w3.org/2000/svg">
<path fill-rule="evenodd" clip-rule="evenodd" d="M25.25 19.875C25.9404 19.875 26.5 20.4346 26.5 21.125V23.625H29C29.6904 23.625 30.25 24.1846 30.25 24.875C30.25 25.5654 29.6904 26.125 29 26.125H26.5V28.625C26.5 29.3154 25.9404 29.875 25.25 29.875C24.5596 29.875 24 29.3154 24 28.625V26.125H21.5C20.8096 26.125 20.25 25.5654 20.25 24.875C20.25 24.1846 20.8096 23.625 21.5 23.625H24V21.125C24 20.4346 24.5596 19.875 25.25 19.875Z" fill="url(#paint0_linear_0_235)"/>
<path d="M9 19.875C9 19.1846 9.55964 18.625 10.25 18.625H15.25C15.9404 18.625 16.5 19.1846 16.5 19.875C16.5 20.5654 15.9404 21.125 15.25 21.125H10.25C9.55964 21.125 9 20.5654 9 19.875Z" fill="url(#paint1_linear_0_235)"/>
<path d="M4 12.375H29V14.875H4V12.375Z" fill="url(#paint2_linear_0_235)"/>
<path fill-rule="evenodd" clip-rule="evenodd" d="M11.1984 6.125H21.8016C22.8078 6.12498 23.6383 6.12497 24.3148 6.18024C25.0174 6.23765 25.6633 6.36086 26.27 6.66997C27.2108 7.14934 27.9757 7.91424 28.455 8.85505C28.7641 9.46172 28.8874 10.1076 28.9448 10.8102C29 11.4867 29 12.3171 29 13.3233V16.125C29 16.8154 28.4404 17.375 27.75 17.375C27.0596 17.375 26.5 16.8154 26.5 16.125V13.375C26.5 12.3043 26.499 11.5764 26.4531 11.0138C26.4083 10.4658 26.3271 10.1855 26.2275 9.99003C25.9878 9.51962 25.6054 9.13717 25.135 8.89749C24.9395 8.79787 24.6592 8.71672 24.1112 8.67194C23.5486 8.62597 22.8207 8.625 21.75 8.625H11.25C10.1793 8.625 9.45141 8.62597 8.8888 8.67194C8.34078 8.71672 8.06052 8.79787 7.86503 8.89749C7.39462 9.13717 7.01217 9.51962 6.77248 9.99003C6.67287 10.1855 6.59172 10.4658 6.54694 11.0138C6.50097 11.5764 6.5 12.3043 6.5 13.375V18.875C6.5 19.9457 6.50097 20.6736 6.54694 21.2362C6.59172 21.7842 6.67287 22.0645 6.77248 22.26C7.01217 22.7304 7.39462 23.1128 7.86503 23.3525C8.06052 23.4521 8.34078 23.5333 8.8888 23.5781C9.45141 23.624 10.1793 23.625 11.25 23.625H16.5C17.1904 23.625 17.75 24.1846 17.75 24.875C17.75 25.5654 17.1904 26.125 16.5 26.125H11.1984C10.1922 26.125 9.36172 26.125 8.68522 26.0698C7.9826 26.0124 7.33672 25.8891 6.73005 25.58C5.78924 25.1007 5.02434 24.3358 4.54497 23.395C4.23586 22.7883 4.11265 22.1424 4.05524 21.4398C3.99997 20.7633 3.99998 19.9328 4 18.9266V13.3234C3.99998 12.3172 3.99997 11.4867 4.05524 10.8102C4.11265 10.1076 4.23585 9.46172 4.54497 8.85505C5.02434 7.91424 5.78924 7.14934 6.73005 6.66997C7.33672 6.36086 7.9826 6.23765 8.68522 6.18024C9.36171 6.12497 10.1922 6.12498 11.1984 6.125Z" fill="url(#paint3_linear_0_235)"/>
<defs>
<linearGradient id="paint0_linear_0_235" x1="25.25" y1="19.875" x2="25.25" y2="29.875" gradientUnits="userSpaceOnUse">
<stop stop-color="#346CBD"/>
</linearGradient>
<linearGradient id="paint1_linear_0_235" x1="12.75" y1="18.625" x2="12.75" y2="21.125" gradientUnits="userSpaceOnUse">
<stop stop-color="#346CBD"/>
</linearGradient>
<linearGradient id="paint2_linear_0_235" x1="16.5" y1="12.375" x2="16.5" y2="14.875" gradientUnits="userSpaceOnUse">
<stop stop-color="#346CBD"/>
</linearGradient>
<linearGradient id="paint3_linear_0_235" x1="16.5" y1="6.125" x2="16.5" y2="26.125" gradientUnits="userSpaceOnUse">
<stop stop-color="#346CBD"/>
</linearGradient>
</defs>
</svg>
