<svg width="33" height="33" viewBox="0 0 33 33" fill="none" xmlns="http://www.w3.org/2000/svg">
<path d="M9 19.875C9 19.1846 9.55964 18.625 10.25 18.625H15.25C15.9404 18.625 16.5 19.1846 16.5 19.875C16.5 20.5654 15.9404 21.125 15.25 21.125H10.25C9.55964 21.125 9 20.5654 9 19.875Z" fill="url(#paint0_linear_0_222)"/>
<path d="M4 12.375H29V14.875H4V12.375Z" fill="url(#paint1_linear_0_222)"/>
<path fill-rule="evenodd" clip-rule="evenodd" d="M11.1984 6.125H21.8016C22.8078 6.12498 23.6383 6.12497 24.3148 6.18024C25.0174 6.23765 25.6633 6.36086 26.27 6.66997C27.2108 7.14934 27.9757 7.91424 28.455 8.85505C28.7641 9.46172 28.8874 10.1076 28.9448 10.8102C29 11.4867 29 12.3171 29 13.3233V16.125C29 16.8154 28.4404 17.375 27.75 17.375C27.0596 17.375 26.5 16.8154 26.5 16.125V13.375C26.5 12.3043 26.499 11.5764 26.4531 11.0138C26.4083 10.4658 26.3271 10.1855 26.2275 9.99003C25.9878 9.51962 25.6054 9.13717 25.135 8.89749C24.9395 8.79787 24.6592 8.71672 24.1112 8.67194C23.5486 8.62597 22.8207 8.625 21.75 8.625H11.25C10.1793 8.625 9.45141 8.62597 8.8888 8.67194C8.34078 8.71672 8.06052 8.79787 7.86503 8.89749C7.39462 9.13717 7.01217 9.51962 6.77248 9.99003C6.67287 10.1855 6.59172 10.4658 6.54694 11.0138C6.50097 11.5764 6.5 12.3043 6.5 13.375V18.875C6.5 19.9457 6.50097 20.6736 6.54694 21.2362C6.59172 21.7842 6.67287 22.0645 6.77248 22.26C7.01217 22.7304 7.39462 23.1128 7.86503 23.3525C8.06052 23.4521 8.34078 23.5333 8.8888 23.5781C9.45141 23.624 10.1793 23.625 11.25 23.625H16.5C17.1904 23.625 17.75 24.1846 17.75 24.875C17.75 25.5654 17.1904 26.125 16.5 26.125H11.1984C10.1922 26.125 9.36172 26.125 8.68522 26.0698C7.9826 26.0124 7.33672 25.8891 6.73005 25.58C5.78924 25.1007 5.02434 24.3358 4.54497 23.395C4.23586 22.7883 4.11265 22.1424 4.05524 21.4398C3.99997 20.7633 3.99998 19.9328 4 18.9266V13.3234C3.99998 12.3172 3.99997 11.4867 4.05524 10.8102C4.11265 10.1076 4.23585 9.46172 4.54497 8.85505C5.02434 7.91424 5.78924 7.14934 6.73005 6.66997C7.33672 6.36086 7.9826 6.23765 8.68522 6.18024C9.36171 6.12497 10.1922 6.12498 11.1984 6.125Z" fill="url(#paint2_linear_0_222)"/>
<path fill-rule="evenodd" clip-rule="evenodd" d="M21.0832 24.8749C21.0832 22.5737 22.9487 20.7082 25.2499 20.7082C27.5511 20.7082 29.4165 22.5737 29.4165 24.8749C29.4165 25.0022 29.4143 25.4483 29.2805 25.8495C29.2145 26.0475 29.1283 26.1972 29.0282 26.2928C28.9406 26.3765 28.8248 26.4374 28.6353 26.4374C28.425 26.4374 28.3238 26.3797 28.2548 26.3092C28.1682 26.2206 28.0755 26.0515 28.0038 25.736C27.8573 25.0911 27.854 24.1213 27.854 22.7916C27.854 22.5039 27.6208 22.2707 27.3332 22.2707C27.0456 22.2707 26.8125 22.5038 26.8124 22.7914C26.3771 22.4645 25.8361 22.2707 25.2499 22.2707C23.8116 22.2707 22.6457 23.4367 22.6457 24.8749C22.6457 26.3131 23.8116 27.4791 25.2499 27.4791C26.0278 27.4791 26.7261 27.138 27.2033 26.5971C27.2836 26.759 27.3838 26.9084 27.5102 27.0376C27.8074 27.3415 28.1945 27.4791 28.6353 27.4791C29.0968 27.4791 29.4693 27.3121 29.7479 27.0459C30.014 26.7916 30.1719 26.4692 30.2687 26.1789C30.4583 25.6101 30.4582 25.0214 30.4582 24.8795V24.8749C30.4582 21.9984 28.1263 19.6666 25.2499 19.6666C22.3734 19.6666 20.0415 21.9984 20.0415 24.8749C20.0415 27.7514 22.3734 30.0832 25.2499 30.0832C26.0804 30.0832 26.867 29.8884 27.565 29.5416C27.8226 29.4136 27.9276 29.101 27.7996 28.8434C27.6716 28.5858 27.359 28.4807 27.1014 28.6087C26.5442 28.8856 25.916 29.0416 25.2499 29.0416C22.9487 29.0416 21.0832 27.1761 21.0832 24.8749ZM26.8124 24.8749C26.8124 25.7379 26.1128 26.4374 25.2499 26.4374C24.3869 26.4374 23.6874 25.7379 23.6874 24.8749C23.6874 24.012 24.3869 23.3124 25.2499 23.3124C26.1128 23.3124 26.8124 24.012 26.8124 24.8749Z" fill="url(#paint3_linear_0_222)" stroke="url(#paint4_linear_0_222)" stroke-width="0.5" stroke-linecap="round"/>
<defs>
<linearGradient id="paint0_linear_0_222" x1="12.75" y1="18.625" x2="12.75" y2="21.125" gradientUnits="userSpaceOnUse">
<stop stop-color="#346CBD"/>
</linearGradient>
<linearGradient id="paint1_linear_0_222" x1="16.5" y1="12.375" x2="16.5" y2="14.875" gradientUnits="userSpaceOnUse">
<stop stop-color="#346CBD"/>
</linearGradient>
<linearGradient id="paint2_linear_0_222" x1="16.5" y1="6.125" x2="16.5" y2="26.125" gradientUnits="userSpaceOnUse">
<stop stop-color="#346CBD"/>
</linearGradient>
<linearGradient id="paint3_linear_0_222" x1="25.2499" y1="19.6666" x2="25.2499" y2="30.0832" gradientUnits="userSpaceOnUse">
<stop stop-color="#346CBD"/>
</linearGradient>
<linearGradient id="paint4_linear_0_222" x1="25.2499" y1="19.6666" x2="25.2499" y2="30.0832" gradientUnits="userSpaceOnUse">
<stop stop-color="#346CBD"/>
</linearGradient>
</defs>
</svg>
