<svg width="27" height="27" viewBox="0 0 27 27" fill="none" xmlns="http://www.w3.org/2000/svg">
<path fill-rule="evenodd" clip-rule="evenodd" d="M6.75 6.75C7.37132 6.75 7.875 7.25368 7.875 7.875V17.1C7.875 18.0637 7.87588 18.7187 7.91725 19.2251C7.95754 19.7183 8.03059 19.9705 8.12024 20.1465C8.33595 20.5698 8.68016 20.914 9.10352 21.1298C9.27947 21.2194 9.5317 21.2925 10.0249 21.3328C10.5313 21.3741 11.1863 21.375 12.15 21.375H14.85C15.8137 21.375 16.4687 21.3741 16.9751 21.3328C17.4683 21.2925 17.7205 21.2194 17.8965 21.1298C18.3198 20.914 18.6641 20.5698 18.8798 20.1465C18.9694 19.9705 19.0425 19.7183 19.0828 19.2251C19.1241 18.7187 19.125 18.0637 19.125 17.1V7.875C19.125 7.25368 19.6287 6.75 20.25 6.75C20.8713 6.75 21.375 7.25368 21.375 7.875V17.1464C21.375 18.052 21.375 18.7995 21.3253 19.4083C21.2736 20.0407 21.1627 20.622 20.8845 21.168C20.4531 22.0147 19.7647 22.7031 18.918 23.1345C18.372 23.4127 17.7907 23.5236 17.1583 23.5753C16.5495 23.625 15.802 23.625 14.8964 23.625H12.1036C11.198 23.625 10.4505 23.625 9.8417 23.5753C9.20934 23.5236 8.62805 23.4127 8.08204 23.1345C7.23531 22.7031 6.5469 22.0147 6.11547 21.168C5.83727 20.622 5.72638 20.0407 5.67472 19.4083C5.62497 18.7995 5.62499 18.0521 5.625 17.1465L5.625 7.875C5.625 7.25368 6.12868 6.75 6.75 6.75Z" fill="#3C6AB2"/>
<path fill-rule="evenodd" clip-rule="evenodd" d="M13.5 16.875C12.8787 16.875 12.375 17.3787 12.375 18V21.375H10.125V18C10.125 16.136 11.636 14.625 13.5 14.625C15.364 14.625 16.875 16.136 16.875 18V21.375H14.625V18C14.625 17.3787 14.1213 16.875 13.5 16.875Z" fill="#3C6AB2"/>
<path fill-rule="evenodd" clip-rule="evenodd" d="M3.49377 9.50311C3.77163 10.0588 4.44739 10.2841 5.00312 10.0062L13.5 5.75779L21.9969 10.0062C22.5526 10.2841 23.2284 10.0588 23.5062 9.50311C23.7841 8.94739 23.5588 8.27163 23.0031 7.99377L14.0031 3.49377C13.6864 3.33541 13.3136 3.33541 12.9969 3.49377L3.99689 7.99377C3.44116 8.27163 3.21591 8.94739 3.49377 9.50311Z" fill="#3C6AB2"/>
</svg>
