<svg width="20" height="15" viewBox="0 0 20 15" fill="none" xmlns="http://www.w3.org/2000/svg">
<path d="M18.6611 6.25H1.93685C1.39183 6.25 0.950012 6.78166 0.950012 7.4375V7.5625C0.950012 8.21834 1.39183 8.75 1.93685 8.75H18.6611C19.2061 8.75 19.6479 8.21834 19.6479 7.5625V7.4375C19.6479 6.78166 19.2061 6.25 18.6611 6.25Z" fill="white"/>
<path d="M18.6611 12.5H1.93685C1.39183 12.5 0.950012 13.0317 0.950012 13.6875V13.8125C0.950012 14.4683 1.39183 15 1.93685 15H18.6611C19.2061 15 19.6479 14.4683 19.6479 13.8125V13.6875C19.6479 13.0317 19.2061 12.5 18.6611 12.5Z" fill="white"/>
<path d="M18.6611 0H1.93685C1.39183 0 0.950012 0.531662 0.950012 1.1875V1.3125C0.950012 1.96834 1.39183 2.5 1.93685 2.5H18.6611C19.2061 2.5 19.6479 1.96834 19.6479 1.3125V1.1875C19.6479 0.531662 19.2061 0 18.6611 0Z" fill="white"/>
</svg>
