<svg width="25" height="24" viewBox="0 0 25 24" fill="none" xmlns="http://www.w3.org/2000/svg">
<path fill-rule="evenodd" clip-rule="evenodd" d="M10.6344 2H15.1045C15.9072 1.99999 16.5698 1.99998 17.1095 2.04419C17.67 2.09012 18.1853 2.18868 18.6692 2.43597C19.4198 2.81947 20.03 3.43139 20.4125 4.18404C20.6591 4.66937 20.7573 5.18608 20.8031 5.74817C20.8472 6.28936 20.8472 6.95372 20.8472 7.75868V16.2413C20.8472 17.0463 20.8472 17.7106 20.8031 18.2518C20.7573 18.8139 20.6591 19.3306 20.4125 19.816C20.03 20.5686 19.4198 21.1805 18.6692 21.564C18.1853 21.8113 17.67 21.9099 17.1095 21.9558C16.5698 22 15.9073 22 15.1045 22H10.6343C9.83162 22 9.16911 22 8.62943 21.9558C8.06889 21.9099 7.55362 21.8113 7.06963 21.564C6.31908 21.1805 5.70885 20.5686 5.32643 19.816C5.07982 19.3306 4.98153 18.8139 4.93573 18.2518C4.89164 17.7106 4.89165 17.0463 4.89166 16.2413V7.7587C4.89165 6.95373 4.89164 6.28937 4.93573 5.74817C4.98153 5.18608 5.07982 4.66937 5.32643 4.18404C5.70885 3.43139 6.31908 2.81947 7.06963 2.43597C7.55362 2.18868 8.06889 2.09012 8.62943 2.04419C9.16912 1.99998 9.83163 1.99999 10.6344 2ZM8.79184 4.03755C8.35464 4.07337 8.13106 4.1383 7.97509 4.21799C7.59981 4.40973 7.2947 4.7157 7.10349 5.09202C7.02402 5.24842 6.95928 5.47262 6.92355 5.91104C6.88688 6.36113 6.88611 6.94342 6.88611 7.8V16.2C6.88611 17.0566 6.88688 17.6389 6.92355 18.089C6.95928 18.5274 7.02402 18.7516 7.10349 18.908C7.2947 19.2843 7.59981 19.5903 7.97509 19.782C8.13106 19.8617 8.35464 19.9266 8.79184 19.9624C9.24068 19.9992 9.82135 20 10.6756 20H15.0633C15.9175 20 16.4982 19.9992 16.947 19.9624C17.3842 19.9266 17.6078 19.8617 17.7638 19.782C18.1391 19.5903 18.4442 19.2843 18.6354 18.908C18.7149 18.7516 18.7796 18.5274 18.8153 18.089C18.852 17.6389 18.8528 17.0566 18.8528 16.2V7.8C18.8528 6.94342 18.852 6.36113 18.8153 5.91104C18.7796 5.47262 18.7149 5.24842 18.6354 5.09202C18.4442 4.7157 18.1391 4.40973 17.7638 4.21799C17.6078 4.1383 17.3842 4.07337 16.947 4.03755C16.4982 4.00078 15.9175 4 15.0633 4H10.6756C9.82135 4 9.24068 4.00078 8.79184 4.03755Z" fill="#3C6AB2"/>
<path d="M13.8667 17C13.8667 17.5523 13.4202 18 12.8694 18C12.3187 18 11.8722 17.5523 11.8722 17C11.8722 16.4477 12.3187 16 12.8694 16C13.4202 16 13.8667 16.4477 13.8667 17Z" fill="#3C6AB2"/>
</svg>
