<svg width="34" height="36" viewBox="0 0 34 36" fill="none" xmlns="http://www.w3.org/2000/svg">
<g filter="url(#filter0_d_0_250)">
<path fill-rule="evenodd" clip-rule="evenodd" d="M17 25C22.5228 25 27 20.5228 27 15C27 9.47715 22.5228 5 17 5C11.4772 5 7 9.47715 7 15C7 20.5228 11.4772 25 17 25ZM17 27.5C23.9036 27.5 29.5 21.9036 29.5 15C29.5 8.09644 23.9036 2.5 17 2.5C10.0964 2.5 4.5 8.09644 4.5 15C4.5 21.9036 10.0964 27.5 17 27.5Z" fill="#3C6AB2"/>
<path d="M17 7.5C17.6904 7.5 18.25 8.05964 18.25 8.75V11.7276L22.559 13.8821C23.1765 14.1908 23.4267 14.9417 23.118 15.5592C22.8093 16.1766 22.0584 16.4269 21.441 16.1182L18.25 14.5227V17.9776L20.059 18.8821C20.6765 19.1908 20.9267 19.9417 20.618 20.5592C20.3093 21.1766 19.5584 21.4269 18.941 21.1182L17 20.1477L15.059 21.1182C14.4415 21.4269 13.6907 21.1766 13.3819 20.5592C13.0732 19.9417 13.3235 19.1908 13.941 18.8821L15.75 17.9776V14.5227L12.559 16.1182C11.9415 16.4269 11.1907 16.1766 10.8819 15.5592C10.5732 14.9417 10.8235 14.1908 11.441 13.8821L15.75 11.7276V8.75C15.75 8.05964 16.3096 7.5 17 7.5Z" fill="#3C6AB2"/>
</g>
<defs>
<filter id="filter0_d_0_250" x="-2" y="0" width="38" height="38" filterUnits="userSpaceOnUse" color-interpolation-filters="sRGB">
<feFlood flood-opacity="0" result="BackgroundImageFix"/>
<feColorMatrix in="SourceAlpha" type="matrix" values="0 0 0 0 0 0 0 0 0 0 0 0 0 0 0 0 0 0 127 0" result="hardAlpha"/>
<feOffset dy="4"/>
<feGaussianBlur stdDeviation="2"/>
<feComposite in2="hardAlpha" operator="out"/>
<feColorMatrix type="matrix" values="0 0 0 0 0 0 0 0 0 0 0 0 0 0 0 0 0 0 0.25 0"/>
<feBlend mode="normal" in2="BackgroundImageFix" result="effect1_dropShadow_0_250"/>
<feBlend mode="normal" in="SourceGraphic" in2="effect1_dropShadow_0_250" result="shape"/>
</filter>
</defs>
</svg>
