<svg width="30" height="30" viewBox="0 0 30 30" fill="none" xmlns="http://www.w3.org/2000/svg">
<g clip-path="url(#clip0_0_228)">
<path fill-rule="evenodd" clip-rule="evenodd" d="M14.1225 2.74375C14.6883 2.53167 15.3117 2.53167 15.8775 2.74375L24.6275 6.025C25.1041 6.20366 25.5149 6.52357 25.8048 6.94194C26.0947 7.36032 26.2501 7.85723 26.25 8.36625V15.07C26.25 17.1593 25.6683 19.2073 24.5699 20.9846C23.4715 22.7618 21.9 24.1981 20.0312 25.1325L15.8387 27.2287C15.5783 27.359 15.2912 27.4268 15 27.4268C14.7088 27.4268 14.4217 27.359 14.1613 27.2287L9.96875 25.1325C8.10005 24.1981 6.52846 22.7618 5.43009 20.9846C4.33171 19.2073 3.74995 17.1593 3.75 15.07V8.36625C3.74994 7.85723 3.90525 7.36032 4.19519 6.94194C4.48513 6.52357 4.89587 6.20366 5.3725 6.025L14.1225 2.74375ZM15 5.085L6.25 8.36625V15.07C6.25029 16.6948 6.70299 18.2875 7.55739 19.6695C8.4118 21.0516 9.63415 22.1685 11.0875 22.895L15 24.8537V5.085Z" fill="url(#paint0_linear_0_228)"/>
</g>
<defs>
<linearGradient id="paint0_linear_0_228" x1="15" y1="2.58469" x2="15" y2="27.4268" gradientUnits="userSpaceOnUse">
<stop stop-color="#346CBD"/>
</linearGradient>
<clipPath id="clip0_0_228">
<rect width="30" height="30" fill="white"/>
</clipPath>
</defs>
</svg>
