<svg width="24" height="23" viewBox="0 0 24 23" fill="none" xmlns="http://www.w3.org/2000/svg">
<g clip-path="url(#clip0_0_175)">
<path fill-rule="evenodd" clip-rule="evenodd" d="M3.90346 2.8696C3.46564 2.8696 3.11072 3.22452 3.11072 3.66234C3.11072 4.10015 3.46564 4.45507 3.90346 4.45507H5.78116L6.65197 6.2836L7.71756 12.3871C6.4738 12.4643 5.48893 13.4975 5.48893 14.7607C5.48893 15.6028 5.9266 16.3426 6.58687 16.7652C6.39254 17.1098 6.28167 17.5078 6.28167 17.9316C6.28167 19.2451 7.34643 20.3098 8.65988 20.3098C9.97333 20.3098 11.0381 19.2451 11.0381 17.9316C11.0381 17.6537 10.9904 17.3868 10.9028 17.1389H15.1371C15.0495 17.3868 15.0018 17.6537 15.0018 17.9316C15.0018 19.2451 16.0665 20.3098 17.38 20.3098C18.6935 20.3098 19.7582 19.2451 19.7582 17.9316C19.7582 16.6182 18.6935 15.5534 17.38 15.5534H7.86715C7.42933 15.5534 7.07441 15.1985 7.07441 14.7607C7.07441 14.3228 7.42933 13.9679 7.86715 13.9679H8.6487C8.68355 13.9684 8.71882 13.9665 8.75433 13.9623L17.5231 12.91C18.5437 12.7876 19.3701 12.0232 19.5717 11.0152L20.5356 6.19602C20.5821 5.96313 20.5218 5.72163 20.3713 5.53796C20.2207 5.3543 19.9957 5.24781 19.7582 5.24781H7.91478L6.99739 3.32148C6.86592 3.04544 6.58742 2.8696 6.28167 2.8696H3.90346ZM17.38 17.1389C16.9422 17.1389 16.5873 17.4938 16.5873 17.9316C16.5873 18.3694 16.9422 18.7244 17.38 18.7244C17.8178 18.7244 18.1727 18.3694 18.1727 17.9316C18.1727 17.4938 17.8178 17.1389 17.38 17.1389ZM7.86715 17.9316C7.86715 17.4938 8.22207 17.1389 8.65988 17.1389C9.0977 17.1389 9.45262 17.4938 9.45262 17.9316C9.45262 18.3694 9.0977 18.7244 8.65988 18.7244C8.22207 18.7244 7.86715 18.3694 7.86715 17.9316ZM9.31156 12.2986L8.35739 6.83329H18.7912L18.017 10.7042C17.9498 11.0402 17.6744 11.295 17.3341 11.3359L9.31156 12.2986Z" fill="#3C6AB2"/>
</g>
<defs>
<clipPath id="clip0_0_175">
<rect width="19.0257" height="19.0257" fill="white" transform="translate(2.31799 2.07687)"/>
</clipPath>
</defs>
</svg>
