<svg width="21" height="21" viewBox="0 0 21 21" fill="none" xmlns="http://www.w3.org/2000/svg">
<path fill-rule="evenodd" clip-rule="evenodd" d="M0.579359 9.88176C0.277723 7.21284 2.35977 4.875 5.03831 4.875H16.2588C18.9374 4.875 21.0194 7.21284 20.7178 9.88176L19.9549 16.6318C19.6979 18.9064 17.7788 20.625 15.496 20.625H5.80119C3.51835 20.625 1.59931 18.9064 1.34223 16.6318L0.579359 9.88176ZM5.03831 7.125C3.69905 7.125 2.65802 8.29392 2.80884 9.62838L3.57171 16.3784C3.70025 17.5157 4.65977 18.375 5.80119 18.375H15.496C16.6374 18.375 17.5969 17.5157 17.7255 16.3784L18.4883 9.62838C18.6391 8.29392 17.5981 7.125 16.2588 7.125H5.03831Z" fill="#B4B4B8"/>
<path fill-rule="evenodd" clip-rule="evenodd" d="M6.16109 4.875C6.16109 2.38972 8.17022 0.375 10.6486 0.375C13.127 0.375 15.1361 2.38972 15.1361 4.875V8.25C15.1361 8.87132 14.6338 9.375 14.0142 9.375C13.3946 9.375 12.8923 8.87132 12.8923 8.25V4.875C12.8923 3.63236 11.8878 2.625 10.6486 2.625C9.40941 2.625 8.40484 3.63236 8.40484 4.875V8.25C8.40484 8.87132 7.90256 9.375 7.28297 9.375C6.66338 9.375 6.16109 8.87132 6.16109 8.25V4.875Z" fill="#B4B4B8"/>
</svg>
