<svg width="30" height="30" viewBox="0 0 30 30" fill="none" xmlns="http://www.w3.org/2000/svg">
<path fill-rule="evenodd" clip-rule="evenodd" d="M9.69838 5H20.3016C21.3078 4.99998 22.1383 4.99997 22.8148 5.05524C23.5174 5.11265 24.1633 5.23586 24.77 5.54497C25.7108 6.02434 26.4757 6.78924 26.955 7.73005C27.2641 8.33672 27.3874 8.9826 27.4448 9.68522C27.5 10.3617 27.5 11.1921 27.5 12.1983V17.8017C27.5 18.8079 27.5 19.6383 27.4448 20.3148C27.3874 21.0174 27.2641 21.6633 26.955 22.27C26.4757 23.2108 25.7108 23.9757 24.77 24.455C24.1633 24.7641 23.5174 24.8874 22.8148 24.9448C22.1383 25 21.3078 25 20.3016 25H9.69841C8.69218 25 7.86172 25 7.18522 24.9448C6.4826 24.8874 5.83672 24.7641 5.23005 24.455C4.28924 23.9757 3.52434 23.2108 3.04497 22.27C2.73586 21.6633 2.61265 21.0174 2.55524 20.3148C2.49997 19.6383 2.49998 18.8078 2.5 17.8016V12.1984C2.49998 11.1922 2.49997 10.3617 2.55524 9.68522C2.61265 8.9826 2.73585 8.33672 3.04497 7.73005C3.52434 6.78924 4.28924 6.02434 5.23005 5.54497C5.83672 5.23585 6.4826 5.11265 7.18522 5.05524C7.86171 4.99997 8.69216 4.99998 9.69838 5ZM7.3888 7.54694C6.84078 7.59172 6.56052 7.67287 6.36503 7.77248C5.89462 8.01217 5.51217 8.39462 5.27248 8.86503C5.17287 9.06052 5.09172 9.34078 5.04694 9.8888C5.00097 10.4514 5 11.1793 5 12.25V17.75C5 18.8207 5.00097 19.5486 5.04694 20.1112C5.09172 20.6592 5.17287 20.9395 5.27248 21.135C5.51217 21.6054 5.89462 21.9878 6.36503 22.2275C6.56052 22.3271 6.84078 22.4083 7.3888 22.4531C7.95141 22.499 8.67928 22.5 9.75 22.5H20.25C21.3207 22.5 22.0486 22.499 22.6112 22.4531C23.1592 22.4083 23.4395 22.3271 23.635 22.2275C24.1054 21.9878 24.4878 21.6054 24.7275 21.135C24.8271 20.9395 24.9083 20.6592 24.9531 20.1112C24.999 19.5486 25 18.8207 25 17.75V12.25C25 11.1793 24.999 10.4514 24.9531 9.8888C24.9083 9.34078 24.8271 9.06052 24.7275 8.86503C24.4878 8.39462 24.1054 8.01217 23.635 7.77248C23.4395 7.67287 23.1592 7.59172 22.6112 7.54694C22.0486 7.50097 21.3207 7.5 20.25 7.5H9.75C8.67928 7.5 7.95141 7.50097 7.3888 7.54694Z" fill="url(#paint0_linear_0_240)"/>
<path fill-rule="evenodd" clip-rule="evenodd" d="M7.71923 10.5429C8.10975 9.9736 8.88783 9.8287 9.45711 10.2192L14.2929 13.5366C14.719 13.8289 15.281 13.8289 15.7071 13.5366L20.5429 10.2192C21.1122 9.8287 21.8902 9.9736 22.2808 10.5429C22.6713 11.1122 22.5264 11.8902 21.9571 12.2808L17.1213 15.5981C15.843 16.475 14.157 16.475 12.8787 15.5981L8.04289 12.2808C7.47361 11.8902 7.3287 11.1122 7.71923 10.5429Z" fill="url(#paint1_linear_0_240)"/>
<defs>
<linearGradient id="paint0_linear_0_240" x1="15" y1="5" x2="15" y2="25" gradientUnits="userSpaceOnUse">
<stop stop-color="#346CBD"/>
<stop offset="1" stop-color="#2A80C2"/>
</linearGradient>
<linearGradient id="paint1_linear_0_240" x1="15" y1="9.99988" x2="15" y2="16.2558" gradientUnits="userSpaceOnUse">
<stop stop-color="#346CBD"/>
<stop offset="1" stop-color="#2A80C2"/>
</linearGradient>
</defs>
</svg>
